<?xml version="1.0" encoding="utf-8"?>
<!-- Generator: Adobe Illustrator 25.0.0, SVG Export Plug-In . SVG Version: 6.00 Build 0)  -->
<svg version="1.1" id="Layer_1" xmlns="http://www.w3.org/2000/svg" xmlns:xlink="http://www.w3.org/1999/xlink" x="0px" y="0px"
	 width="757.974px" height="306.662px" viewBox="0 0 757.974 306.662" style="enable-background:new 0 0 757.974 306.662;"
	 xml:space="preserve">
<style type="text/css">
	.st0{fill:#E9EEF1;}
	.st1{fill:#FFFFFF;}
	.st2{fill:#ABB6BF;}
	.st3{fill:#0174C3;}
	.st4{fill:#015A99;}
	.st5{fill:#0789E1;}
	.st6{fill:#0F9DFF;}
</style>
<g>
	<g>
		<path class="st0" d="M594.295,41.684c63.23,0,114.489,51.258,114.489,114.489v0c0,63.23-51.258,114.489-114.489,114.489H150.489
			C87.258,270.662,36,219.403,36,156.173v0c0-63.23,51.258-114.489,114.489-114.489H594.295 M594.295,5.684H150.489
			c-20.3,0-40.012,3.984-58.588,11.841c-17.924,7.581-34.015,18.427-47.823,32.236C30.268,63.57,19.422,79.66,11.841,97.585
			C3.984,116.161,0,135.873,0,156.173s3.984,40.012,11.841,58.588c7.581,17.924,18.427,34.015,32.236,47.823
			c13.809,13.809,29.899,24.655,47.823,32.236c18.576,7.857,38.288,11.841,58.588,11.841h443.807c20.3,0,40.012-3.984,58.588-11.841
			c17.924-7.581,34.015-18.427,47.823-32.236c13.809-13.809,24.655-29.899,32.236-47.823c7.857-18.576,11.841-38.288,11.841-58.588
			s-3.984-40.012-11.841-58.588c-7.581-17.924-18.427-34.015-32.236-47.823c-13.809-13.809-29.899-24.655-47.823-32.236
			C634.307,9.668,614.595,5.684,594.295,5.684L594.295,5.684z"/>
	</g>
	<g>
		<circle class="st1" cx="733.24" cy="24.734" r="22.234"/>
		<path class="st2" d="M733.24,5c10.899,0,19.734,8.835,19.734,19.734c0,10.899-8.835,19.734-19.734,19.734
			s-19.734-8.835-19.734-19.734C713.506,13.835,722.341,5,733.24,5 M733.24,0c-13.638,0-24.734,11.096-24.734,24.734
			s11.096,24.734,24.734,24.734s24.734-11.096,24.734-24.734S746.878,0,733.24,0L733.24,0z"/>
	</g>
	<g>
		<g>
			<path class="st3" d="M250.318,138.523c0-9.852,2.626-17.753,7.881-23.707c5.254-5.952,12.027-8.929,20.321-8.929
				c2.71,0,5.212,0.329,7.512,0.985c2.298,0.659,4.127,1.478,5.48,2.463c1.355,0.985,2.544,1.971,3.572,2.955
				c1.026,0.985,1.743,1.807,2.156,2.463l0.493,0.985h0.246c-0.167-1.232-0.246-2.626-0.246-4.187V82.734h11.946v86.946h-11.33
				v-5.911l0.123-4.188h-0.246c-0.167,0.329-0.391,0.739-0.678,1.232c-0.288,0.493-0.985,1.416-2.094,2.771
				c-1.108,1.355-2.382,2.546-3.818,3.571c-1.437,1.028-3.386,1.952-5.85,2.771c-2.462,0.819-5.131,1.232-8.004,1.232
				c-8.375,0-15.046-2.997-20.012-8.99C252.8,156.176,250.318,148.294,250.318,138.523z M262.51,138.523
				c0,6.733,1.62,12.13,4.864,16.195c3.243,4.064,7.491,6.096,12.747,6.096c5.089,0,9.359-1.866,12.808-5.603
				c3.449-3.735,5.173-9.339,5.173-16.811c0-5.992-1.54-11.186-4.619-15.579c-3.078-4.391-7.41-6.589-12.992-6.589
				c-5.092,0-9.361,1.992-12.808,5.973C264.234,126.188,262.51,131.626,262.51,138.523z"/>
			<path class="st3" d="M319.756,94.927V82.734h12.07v12.193H319.756z M319.879,169.681v-62.316h11.947v62.316H319.879z"/>
			<path class="st3" d="M350.044,181.011c5.173,2.79,10.878,4.187,17.118,4.187c5.912,0,10.672-1.416,14.286-4.248
				c3.612-2.833,5.419-7.247,5.419-13.24v-4.556l0.123-3.941h-0.246c-3.86,6.487-10.018,9.729-18.473,9.729
				c-8.458,0-15.21-3.018-20.258-9.052c-5.05-6.034-7.574-13.649-7.574-22.845c0-9.194,2.42-16.687,7.265-22.475
				c4.844-5.788,11.493-8.682,19.951-8.682c2.789,0,5.376,0.308,7.758,0.924c2.381,0.616,4.269,1.397,5.666,2.34
				c1.395,0.945,2.586,1.868,3.572,2.771c0.985,0.904,1.642,1.684,1.971,2.339l0.616,0.862h0.246
				c-0.084-0.573-0.123-1.232-0.123-1.971v-5.788h11.453v59.729c0,4.927-0.884,9.277-2.647,13.055
				c-1.768,3.775-4.169,6.752-7.204,8.928c-3.039,2.175-6.364,3.797-9.976,4.865c-3.614,1.066-7.471,1.601-11.576,1.601
				c-7.472,0-14.574-1.724-21.306-5.173L350.044,181.011z M370.611,158.597c4.843,0,8.806-1.682,11.883-5.049
				c3.079-3.365,4.619-8.824,4.619-16.379c0-13.957-5.871-20.936-17.611-20.936c-5.338,0-9.504,1.828-12.501,5.48
				c-2.998,3.654-4.495,8.682-4.495,15.086c0,6.57,1.62,11.844,4.864,15.825C360.615,156.607,365.027,158.597,370.611,158.597z"/>
			<path class="st3" d="M408.644,94.927V82.734h12.07v12.193H408.644z M408.767,169.681v-62.316h11.947v62.316H408.767z"/>
			<path class="st3" d="M429.452,138.523c0-9.277,3.14-17.036,9.421-23.276c6.28-6.239,14.264-9.36,23.953-9.36
				c4.596,0,8.845,0.76,12.745,2.279c3.899,1.52,6.67,3.06,8.313,4.618l2.34,2.217l-5.666,8.374
				c-0.493-0.493-1.211-1.149-2.155-1.971c-0.945-0.819-2.915-1.887-5.912-3.202c-2.998-1.313-6.055-1.971-9.175-1.971
				c-6.239,0-11.412,2.094-15.517,6.281c-4.105,4.188-6.157,9.483-6.157,15.887c0,6.404,2.072,11.742,6.219,16.01
				c4.144,4.27,9.421,6.404,15.824,6.404c3.449,0,6.774-0.696,9.976-2.094c3.202-1.395,5.541-2.79,7.019-4.187l2.217-2.094
				l4.803,8.744c-0.246,0.246-0.597,0.596-1.048,1.047c-0.452,0.452-1.458,1.253-3.017,2.402c-1.561,1.15-3.244,2.155-5.05,3.017
				c-1.807,0.862-4.125,1.663-6.958,2.402c-2.831,0.739-5.768,1.108-8.804,1.108c-9.772,0-17.778-3.079-24.016-9.237
				C432.57,155.765,429.452,147.965,429.452,138.523z"/>
			<path class="st3" d="M489.188,138.523c0-9.769,2.934-17.651,8.806-23.645c5.868-5.992,13.319-8.99,22.352-8.99
				c8.455,0,15.065,2.752,19.827,8.251c4.761,5.502,7.144,12.481,7.144,20.936l-0.369,5.173h-45.444
				c0.327,6.569,2.524,11.638,6.589,15.209c4.064,3.571,9.01,5.357,14.839,5.357c3.202,0,6.344-0.616,9.421-1.847
				c3.079-1.231,5.358-2.421,6.835-3.571l2.217-1.847l4.927,8.744c-0.658,0.658-1.643,1.478-2.956,2.463
				c-1.314,0.985-4.064,2.3-8.251,3.941c-4.188,1.642-8.498,2.463-12.931,2.463c-9.689,0-17.611-3.098-23.769-9.298
				C492.266,155.662,489.188,147.883,489.188,138.523z M501.873,131.257h33.252c-0.167-5.172-1.663-9.113-4.496-11.822
				c-2.831-2.71-6.342-4.064-10.528-4.064c-4.68,0-8.682,1.397-12.008,4.188C504.766,122.349,502.693,126.25,501.873,131.257z"/>
			<path class="st3" d="M555.928,169.681v-62.316h11.577v10.838l-0.246,4.68h0.246c1.478-4.761,3.96-8.661,7.451-11.699
				c3.488-3.037,7.574-4.557,12.253-4.557l3.079,0.246v11.823c-1.068-0.246-2.217-0.369-3.449-0.369
				c-3.86,0-7.388,1.314-10.591,3.941c-3.202,2.628-5.502,6.2-6.896,10.715c-0.985,3.202-1.478,6.939-1.478,11.207v25.493H555.928z"
				/>
			<path class="st3" d="M605.58,146.897v-29.064h-8.127v-9.606h8.497V90.247h11.576v17.981h15.025v9.606h-15.025v27.709
				c0,2.382,0.327,4.455,0.985,6.219c0.656,1.767,1.458,3.141,2.402,4.126c0.942,0.985,2.05,1.766,3.325,2.339
				c1.271,0.576,2.42,0.945,3.447,1.108c1.026,0.166,2.073,0.246,3.141,0.246l2.831-0.246v10.591
				c-1.151,0.164-2.546,0.246-4.186,0.246c-1.971,0-3.86-0.123-5.666-0.369c-1.807-0.246-3.86-0.862-6.158-1.847
				c-2.3-0.985-4.29-2.278-5.973-3.879c-1.684-1.601-3.121-3.88-4.309-6.835C606.176,154.287,605.58,150.838,605.58,146.897z"/>
			<path class="st3" d="M640.26,82.576c-5.006,0-9.025,4.032-9.025,9.03c0,4.966,4.019,9.012,9.025,9.012
				c4.987,0,9.027-4.045,9.027-9.012C649.288,86.608,645.248,82.576,640.26,82.576 M640.26,98.858c-4.019,0-7.257-3.251-7.257-7.252
				c0-4.011,3.238-7.267,7.257-7.267c4.008,0,7.246,3.256,7.246,7.267C647.507,95.607,644.269,98.858,640.26,98.858"/>
			<g>
				<path class="st3" d="M637.142,96.583v-9.971h3.05c0.838,0,1.46,0.076,1.864,0.226c0.517,0.188,0.928,0.522,1.229,1.002
					c0.301,0.48,0.452,1.045,0.452,1.695c0,0.64-0.162,1.205-0.487,1.695c-0.324,0.49-0.76,0.824-1.306,1.003v0.028
					c0.075,0.084,0.174,0.235,0.297,0.452l2.118,3.87h-1.581l-2.104-3.969h-2.133v3.969H637.142z M638.54,91.4h2.006
					c0.546,0,0.977-0.163,1.292-0.487c0.316-0.325,0.474-0.765,0.474-1.321c0-0.734-0.263-1.248-0.791-1.54
					c-0.283-0.151-0.739-0.226-1.37-0.226h-1.61V91.4z"/>
			</g>
		</g>
	</g>
	<g>
		<path class="st2" d="M408.243,226.521l2.741-4.262c2.218,1.643,5.559,3.173,9.632,3.173c3.959,0,6.4-1.796,6.4-4.91
			c0-3.583-3.083-4.528-8.157-6.302c-4.553-1.593-9.028-3.89-9.028-10.334c0-6.043,4.766-9.329,11.176-9.329
			c4.257,0,7.4,0.836,9.924,2.326l-2.188,4.533c-2.123-1.103-4.658-1.85-7.637-1.85c-3.568,0-5.711,1.346-5.711,4.176
			c0,3.326,2.485,4.173,7.152,5.708c4.865,1.574,10.225,3.825,10.225,10.973c0,6.034-4.32,10.023-12.066,10.023
			C414.949,230.446,410.727,228.462,408.243,226.521"/>
		<polygon class="st2" points="443.161,195.106 463.908,195.106 463.908,199.922 449.066,199.922 449.066,209.446 460.79,209.446 
			460.79,214.167 449.066,214.167 449.066,225.175 464.815,225.175 464.815,229.99 443.161,229.99 		"/>
		<path class="st2" d="M472.383,212.573c0-10.176,4.87-18.011,14.6-18.011c4.36,0,7.799,1.376,10.221,4.207l-3.44,3.985
			c-2.084-2.04-3.847-3.038-6.688-3.038c-5.711,0-8.345,4.672-8.345,13.303c0,8.107,2.783,12.21,8.4,12.21
			c3.118,0,5.311-1.639,7.231-3.672l3.475,3.872c-2.53,2.983-5.692,5.018-10.761,5.018
			C477.049,230.446,472.383,222.798,472.383,212.573"/>
		<path class="st2" d="M507.886,216.189v-21.536h5.95v22.5c0,4.79,1.188,7.928,6.247,7.928c5.014,0,6.26-3.138,6.26-7.928v-22.5
			h6.009v21.536c0,8.646-3.326,13.809-12.314,13.809C511.198,229.997,507.886,224.835,507.886,216.189"/>
		<path class="st2" d="M568.21,229.99h-6.45l-6.695-14.794h-5.515v14.794h-5.904v-34.888h11.378c7.043,0,12.542,2.529,12.542,10.176
			c0,5.217-3.124,7.83-6.608,9.078L568.21,229.99z M554.812,210.643c4.424,0,6.701-1.441,6.701-5.47
			c0-3.874-2.322-5.251-6.351-5.251h-5.613v10.721H554.812z"/>
		<polygon class="st2" points="577.553,195.106 598.296,195.106 598.296,199.922 583.454,199.922 583.454,209.446 595.158,209.446 
			595.158,214.167 583.454,214.167 583.454,225.175 599.187,225.175 599.187,229.99 577.553,229.99 		"/>
		<path class="st2" d="M608.831,195.102h8.712c11.368,0,16.838,6.157,16.838,17.318c0,11.374-5.564,17.57-16.536,17.57h-9.014
			V195.102z M617.202,225.175c8.141,0,10.924-3.763,10.924-12.755c0-7.89-2.184-12.498-10.192-12.498h-3.173v25.253H617.202z"/>
	</g>
	<polygon class="st3" points="98.614,129.506 77.059,151.728 138.17,211.95 222.836,111.95 198.614,91.506 136.392,166.839 	"/>
	<g>
		<path class="st4" d="M69.155,75.597c20.748-20.942,49.526-33.913,81.334-33.913v-36c-20.3,0-40.012,3.984-58.588,11.841
			c-17.924,7.581-34.015,18.427-47.823,32.236L69.155,75.597z"/>
	</g>
	<g>
		<path class="st3" d="M36,156.173L36,156.173c0-31.423,12.659-59.888,33.155-80.576L44.077,49.761
			C30.268,63.57,19.422,79.66,11.841,97.585C3.984,116.161,0,135.873,0,156.173L36,156.173z"/>
	</g>
	<g>
		<path class="st5" d="M69.913,237.507C48.971,216.759,36,187.981,36,156.173H0c0,20.3,3.984,40.012,11.841,58.588
			c7.581,17.924,18.427,34.015,32.236,47.823L69.913,237.507z"/>
	</g>
	<g>
		<path class="st6" d="M150.489,270.662L150.489,270.662c-31.423,0-59.888-12.659-80.576-33.155l-25.836,25.077
			c13.809,13.809,29.899,24.655,47.823,32.236c18.576,7.857,38.288,11.841,58.588,11.841L150.489,270.662z"/>
	</g>
	<g>
		<rect x="731.728" y="20.889" class="st2" width="3.023" height="17.007"/>
		<circle class="st2" cx="733.24" cy="13.84" r="2.269"/>
	</g>
</g>
</svg>
